PathFileType	4	(X/Y/Z)	RBDS018\RBDS018runT35.trc
DataRate	CameraRate	NumFrames	NumMarkers	Units	OrigDataRate	OrigDataStartFrame	OrigNumFrames
150.000000	150.000000	6	33	mm	150.000000	562	4500
Frame#	Time	L.ASIS			L.Heel.Bottom			L.Heel.Lateral			L.Heel.Top			L.Iliac.Crest			L.MT1			L.MT5			L.PSIS			L.Shank.Bottom.Lateral			L.Shank.Bottom.Medial			L.Shank.Top.Lateral			L.Shank.Top.Medial			L.Thigh.Bottom.Lateral			L.Thigh.Bottom.Medial			L.Thigh.Top.Lateral			L.Thigh.Top.Medial			R.ASIS			R.ASY			R.Heel.Bottom			R.Heel.Lateral			R.Heel.Top			R.Iliac.Crest			R.MT1			R.MT5			R.PSIS			R.Shank.Bottom.Lateral			R.Shank.Bottom.Medial			R.Shank.Top.Lateral			R.Shank.Top.Medial			R.Thigh.Bottom.Lateral			R.Thigh.Bottom.Medial			R.Thigh.Top.Lateral			R.Thigh.Top.Medial			
		X1	Y1	Z1	X2	Y2	Z2	X3	Y3	Z3	X4	Y4	Z4	X5	Y5	Z5	X6	Y6	Z6	X7	Y7	Z7	X8	Y8	Z8	X9	Y9	Z9	X10	Y10	Z10	X11	Y11	Z11	X12	Y12	Z12	X13	Y13	Z13	X14	Y14	Z14	X15	Y15	Z15	X16	Y16	Z16	X17	Y17	Z17	X18	Y18	Z18	X19	Y19	Z19	X20	Y20	Z20	X21	Y21	Z21	X22	Y22	Z22	X23	Y23	Z23	X24	Y24	Z24	X25	Y25	Z25	X26	Y26	Z26	X27	Y27	Z27	X28	Y28	Z28	X29	Y29	Z29	X30	Y30	Z30	X31	Y31	Z31	X32	Y32	Z32	X33	Y33	Z33	

563	3.746666666666667	2180.798579969774	1038.435726959173	928.4240553031854	1545.640838802146	230.891250544419	1030.721960646626	1563.290182931329	206.0946444947856	982.7725300151189	1589.412642622417	250.8440616473466	1016.29729083897	2140.074960978899	1122.941655253928	882.3723085056364	1686.68912369949	64.24036356990639	1071.998926542481	1651.29544028213	72.00650428821264	962.5302386337237	2007.315575691246	1081.476814056216	976.9801071088585	1669.608586609291	300.8278785021199	947.4141428636693	1650.955673588864	319.567228471952	991.1288322256845	1702.900917000003	372.307276712418	927.3892752685955	1687.001427405406	394.5860415831625	972.8562744369975	1941.04828159257	684.2445067202311	879.3225792162842	1894.141599003062	712.793777229839	927.5547533012489	1980.377253341034	784.0897979913267	858.7565951837915	1936.031186901782	811.3168326820453	906.0490377828082	2176.534330315772	1054.322426179496	1150.403429488361	2220.37798615161	204.2371362594488	1107.711620232106	2034.171275995071	274.4587998216377	1077.087064819015	2055.376137287669	273.58842688075	1117.143852393581	2072.803765601121	307.5229577173308	1082.253641333907	2107.729361696781	1130.611067099181	1182.159051598564	2224.881004459984	154.0196163609267	1058.914355128243	2187.090940406662	165.7035717066508	1163.52623317161	2002.763978845553	1079.46858743708	1088.314081410387	2182.257773333645	375.7512514185543	1162.389728206927	2149.595517901269	402.2609023770449	1125.898996841409	2219.119678396909	447.0638791911397	1178.659439161045	2187.407194286396	471.5084481363741	1142.179298499678	2322.502290090981	709.9778188251595	1207.321495062101	2275.034590846236	672.7734669691757	1165.873793831178	2245.678348088818	787.855558327261	1224.51733103332	2200.640417795923	751.2344999023281	1188.098978911056	
564	3.753333333333333	2183.297389301437	1041.994979207929	928.8966651610301	1539.2686617497	247.9383778557811	1030.895768319893	1555.055359381984	221.6023042721399	983.0173331567365	1584.294507656929	264.9760168525257	1015.999074637658	2145.265782356251	1128.306278948053	882.960242063619	1670.738054962495	72.1299438067403	1072.205859898018	1635.010979988674	80.50246695742425	963.3086271053818	2009.948954001758	1086.360870713656	975.2241593167923	1662.539547138564	309.8751165906465	947.2382778444374	1644.206254946394	328.7571389416434	991.0104025287568	1696.827117879119	380.8900774294331	927.3053361915499	1681.134419380431	403.3313451047416	972.7496429216334	1940.279031103944	689.3303482612175	878.8447691923942	1893.085459568566	718.8136290260725	926.1187252112762	1981.241603349539	788.3884275583561	857.9444962741725	1936.676442042968	816.5480271820227	904.4399884881975	2177.7555922231	1058.274502935314	1149.817347297256	2246.618482629483	195.6683959151589	1108.436219971924	2056.851601164316	253.4096666065655	1074.316280401439	2077.320803046417	254.0136283450997	1114.801162700052	2093.103469139267	288.8352006955407	1080.037042342368	2108.931693851421	1135.108071149127	1181.557022414264	2255.37027151563	145.6991911418679	1059.904465796056	2215.104390886758	155.2291892147956	1163.834008560417	2004.501110145273	1084.317869941116	1086.715898936913	2196.486154976405	364.952188672182	1161.369568052039	2163.467902657311	389.100448982097	1123.553302418006	2228.730660411816	438.4378560598657	1177.540514148241	2196.895203144849	460.5947615750061	1139.619622236432	2320.745291660032	711.7759285441244	1206.846405753604	2272.916538665825	674.3813393184721	1166.009625615767	2244.271903051175	790.2067728567437	1223.270236015588	2198.954891288733	753.4698749053173	1187.297841232443	
565	3.76	2185.477245986742	1045.285435362853	929.2865655560048	1532.86763658913	264.8523288192189	1030.880364328272	1546.963717033225	237.12296660854	983.1761285573887	1578.898753024787	279.1527441178605	1015.663569504161	2149.498498493116	1133.338227816375	883.5671257119568	1655.139894388461	81.39311399923831	1072.92386813031	1619.361298417256	90.08220724965685	964.5327004641478	2012.312185664443	1091.100558741972	973.6986652212744	1655.881866997981	319.0450466015952	947.0518559001232	1637.824191458763	338.3693931984037	990.6977798301252	1691.579625209684	389.2844437092226	927.0054190408766	1676.108491604635	412.1469770703612	972.2958694595749	1940.808913544934	693.151834719346	878.10642107622	1893.062055764383	723.367625872243	924.2493435584306	1983.000601305249	791.5968895311506	856.9874390157605	1937.877017275622	820.4965188247485	902.4051606407005	2178.782454240013	1061.678342040965	1149.328435688457	2272.522752397079	187.849823514331	1108.922107945022	2080.007869189126	232.9786773852509	1071.706816127814	2099.698246875998	234.9019207504896	1112.577892589841	2113.713492869707	270.5906285548012	1078.008052786789	2110.085260634487	1139.033918511105	1181.086410194392	2285.386409707934	138.5235038645739	1060.520195202021	2242.986459536242	145.4303833704046	1163.840363180315	2006.125052482083	1088.961053439884	1085.339042924129	2210.589374683526	353.8687373886818	1160.316405945209	2177.362711744982	375.7653243304919	1121.346312173418	2238.158596126426	429.1499062873972	1176.477419912132	2206.312240697624	449.1353391786488	1137.299041693941	2318.469676067873	712.5729722230851	1206.437517987616	2270.127941993397	675.1048798604936	1166.318704224926	2242.622690547353	791.7650336734019	1222.161917393825	2196.858465714349	754.9958493603216	1186.734142751678	
566	3.766666666666667	2187.353797692746	1048.305084229858	929.5783186170813	1526.275395152544	281.5961749144158	1030.544999048783	1538.912780559332	252.5802245176239	983.1543776851424	1573.092755553115	293.37116458538	1015.202043373216	2152.719632329563	1137.95207537045	884.1217472773029	1639.867377267209	92.02339538188198	1074.201766606965	1604.35623420263	100.6691998928367	966.1998889553156	2014.388034334011	1095.668631745639	972.3775752556354	1649.576231463239	328.413529003879	946.838516384722	1631.760012372787	348.4704191943291	990.1809693616608	1687.086897837685	397.5573138065885	926.5081839472821	1671.868215699761	421.0852123671737	971.5228624564645	1942.538762321462	695.7165138699837	877.2320093704652	1894.034242344937	726.4748553730974	922.1393269923342	1985.573870502497	793.7388596270287	855.9977406501068	1939.604532047629	823.1913658969269	900.1153442270437	2179.566660407118	1064.530064213007	1148.940589132745	2297.889459643253	180.8129291055531	1109.099896099159	2103.40413101338	213.3453683588021	1069.2782959178	2122.321463559714	216.408929232127	1110.482154489342	2134.429703838712	252.9550116121878	1076.197495692666	2111.148157745446	1142.377901230953	1180.711458636979	2314.648225629716	132.5396622638541	1060.655667478191	2270.549777056658	136.3394710941785	1163.453326059603	2007.601599852384	1093.347494464456	1084.169351209285	2224.513086159495	342.6077958446515	1159.255536727829	2191.147465951325	362.3635020887594	1119.333735949241	2247.377252290283	419.316998342679	1175.517717854115	2215.546506319509	437.2483390427239	1135.305226432091	2315.671614267689	712.3891888736183	1206.129932564229	2266.706967173981	675.0223539331456	1166.736133815212	2240.739702206627	792.5331351571218	1221.265827942032	2194.392510428507	755.8714589618147	1186.393786410681	
567	3.773333333333333	2188.951422953072	1051.05434193865	929.7603911656264	1519.438724938723	298.1793157407507	1029.777143654274	1530.882140009284	267.9405606552619	982.8674353230459	1566.861048000787	307.6538931185974	1014.532489004644	2154.929089672316	1142.078660301475	884.564634739351	1624.942821874761	103.9767003797009	1076.034218835599	1590.023998727425	112.1761683695276	968.2653132641357	2016.17129046158	1100.020913788515	971.232339558654	1643.623101288754	338.0421358001905	946.576114715263	1626.028970947705	359.0967326575153	989.4525757582475	1683.313377613361	405.772908605042	925.8374532219829	1668.390852982565	430.1853136476723	970.4655092950708	1945.351417826894	697.0860530034456	876.3496828294503	1895.947535536298	728.2064407316933	919.9806064779767	1988.86616175101	794.8806287142178	855.084905371718	1941.831958062493	824.7028495912024	897.7512496626165	2180.079251561693	1066.841753513344	1148.641959668089	2322.489572745878	174.5771799483248	1108.911129919946	2126.760111991445	194.6960353069277	1067.036931570237	2144.961953980286	198.7021786701437	1108.512776269465	2155.014641824287	236.0980712625343	1074.623032411866	2112.083084903533	1145.13882184028	1180.39279200675	2342.846028209975	127.7679879089721	1060.229974109793	2297.57031042478	127.9870558764042	1162.594163838995	2008.901208535915	1097.417310929789	1083.182871025934	2238.191083260722	331.310395045707	1158.215877292641	2204.674284740317	349.0310005992378	1117.573794786397	2256.356323760026	409.0951808546494	1174.704758385411	2224.481480732011	425.085404760439	1133.719220918077	2312.344751489408	711.2687564502233	1205.945279666713	2262.694636061135	674.2284644288254	1167.184553266629	2238.615629267344	792.5312039873695	1220.635620197222	2191.591491130498	756.1707160606516	1186.244248790699	
568	3.78	2190.300702105576	1053.531227611123	929.8263250091295	1512.42052299452	314.6496850856848	1028.497994641765	1522.936768323149	283.2132032705128	982.250675831306	1560.306329956745	322.0418116243958	1013.589981238415	2156.176134392849	1145.66797023694	884.8533693542354	1610.439562325992	117.1707661309145	1078.356590796551	1576.412080074433	124.5134970319761	970.6426889491936	2017.667836038193	1104.093698994988	970.2346305454338	1638.081161124464	347.970886602071	946.2416228150702	1620.708894625699	370.2494399218518	988.5120539305071	1680.261064722487	413.984580552931	925.0224025810487	1665.687921193562	439.4675011023685	969.1657145041647	1949.121757767328	697.3609529181787	875.5760751470692	1898.733412496554	728.6695511604983	917.9448452246069	1992.774294826932	795.1167637236457	854.3425928519396	1944.5323049053	825.1283192961937	895.4837452042977	2180.312083316434	1068.63861239815	1148.405983269747	2346.070043446931	169.1433668100704	1108.315728172757	2149.753119154159	177.2085208161111	1064.978292749061	2167.347001397931	181.9471512057002	1106.661701496238	2175.198212508597	220.1803639865624	1073.289285370197	2112.858574005419	1147.321670048416	1180.092531846335	2369.652599150937	124.1921259421647	1059.196474737547	2323.787527869018	120.3930412282504	1161.206271108609	2009.999439319774	1101.102180351002	1082.347723871201	2251.534130042997	320.1445296911273	1157.227203165379	2217.777986833829	335.9273376321743	1116.12019004716	2265.052109045188	398.6734377691312	1174.071454050373	2232.996132056475	412.8276209806875	1132.60417580906	2308.48752242081	709.2808495986493	1205.887470159284	2258.136979959733	672.8273635124206	1167.582801036566	2236.231169193409	791.7978831416663	1220.297381276026	2188.483216314765	755.9753787354728	1186.23781301421	
